# xmcd CD database file
#
# Track frame offsets:
#	150
#	20053
#	35605
#	53935
#	71896
#	88286
#	119837
#	137073
#	153416
#	167375
#
# Disc length: 2450 seconds
#
# Revision: 0
# Processed by: cddbd v1.5.2PL0 Copyright (c) Steve Scherf et al.
# Submitted via: CDex 1.51
#
DISCID=9209900a
DTITLE=Jason Isbell and the 400 Unit - The Nashville Sound
DYEAR=2017
DGENRE=Country
TTITLE0=Last Of My Kind
TTITLE1=Cumberland Gap
TTITLE2=Tupelo
TTITLE3=White Man's World
TTITLE4=If We Were Vampires
TTITLE5=Anxiety
TTITLE6=Molotov
TTITLE7=Chaos and Clothes
TTITLE8=Hope the High Road
TTITLE9=Something to Love
EXTD=YEAR: 2017
EXTT0=
EXTT1=
EXTT2=
EXTT3=
EXTT4=
EXTT5=
EXTT6=
EXTT7=
EXTT8=
EXTT9=
PLAYORDER=
